<svg width="672" height="178" viewBox="0 0 672 178" fill="none" xmlns="http://www.w3.org/2000/svg">
<path d="M394.532 65.3582L350.958 159.803H337.156L293.384 65.3582V159.803H277.61V36.9657H297.919L344.057 139.494V139.297V139.494L390.195 36.9657H410.306V159.803H394.532V65.3582ZM582.414 78.3715L572.161 91.7791C569.27 86.3897 564.472 83.8265 557.768 84.0894C552.51 84.3523 547.318 86.9155 542.191 91.7791C537.065 96.6426 532.924 101.178 529.77 105.384C529.638 105.515 529.573 105.581 529.573 105.581C524.315 112.416 517.874 121.552 510.25 132.988C509.724 133.645 509.395 134.171 509.264 134.565C503.743 142.846 497.368 149.419 490.138 154.282C482.909 159.014 474.365 161.38 464.506 161.38C456.094 161.38 448.338 159.343 441.24 155.268C434.274 151.062 428.687 145.409 424.481 138.311C420.406 131.213 418.368 123.523 418.368 115.242C418.368 106.961 420.406 99.2715 424.481 92.1734C428.687 85.0753 434.274 79.4888 441.24 75.4139C448.338 71.3391 456.094 69.3016 464.506 69.3016C475.285 69.3016 484.552 72.5221 492.307 78.963C495.988 81.9863 499.603 86.1268 503.152 91.3847C506.701 96.6426 508.475 99.2715 508.475 99.2715L443.606 136.34C449.39 141.992 456.357 144.818 464.506 144.818C471.21 144.818 477.125 143.043 482.252 139.494C487.51 135.945 492.636 130.687 497.631 123.721C510.25 105.975 516.559 97.1027 516.559 97.1027V70.6818H532.333V81.7234C532.333 81.7234 533.384 80.6718 535.488 78.5686C537.722 76.334 540.614 74.2966 544.163 72.4564C547.712 70.6161 551.721 69.5645 556.191 69.3016C561.186 68.9073 565.589 69.4331 569.401 70.879C573.344 72.1935 576.499 73.7708 578.865 75.6111C581.231 77.4513 582.414 78.3715 582.414 78.3715ZM435.917 123.523L485.998 95.1309C480.083 88.8215 472.919 85.6668 464.506 85.6668C456.225 85.6668 449.193 88.5586 443.409 94.3423C437.757 100.126 434.931 107.093 434.931 115.242C434.931 118.003 435.259 120.763 435.917 123.523ZM526.418 118.397C530.361 113.008 532.333 110.313 532.333 110.313V160H516.559V133.776C519.188 128.913 522.474 123.786 526.418 118.397ZM600.089 75.4139C607.187 71.3391 614.876 69.3016 623.158 69.3016C631.57 69.3016 639.26 71.3391 646.227 75.4139C653.325 79.4888 658.911 85.0753 662.986 92.1734C667.192 99.2715 669.295 106.961 669.295 115.242C669.295 123.655 667.192 131.41 662.986 138.508C658.911 145.475 653.325 151.062 646.227 155.268C639.26 159.343 631.57 161.38 623.158 161.38C614.876 161.38 607.187 159.343 600.089 155.268C593.122 151.062 587.535 145.475 583.329 138.508C579.254 131.41 577.217 123.655 577.217 115.242C577.217 106.961 579.254 99.2715 583.329 92.1734C587.535 85.0753 593.122 79.4888 600.089 75.4139ZM644.058 94.3423C638.405 88.5586 631.439 85.6668 623.158 85.6668C615.008 85.6668 608.041 88.5586 602.258 94.3423C596.474 100.126 593.582 107.093 593.582 115.242C593.582 123.392 596.474 130.359 602.258 136.142C608.041 141.926 615.008 144.818 623.158 144.818C631.439 144.818 638.405 141.926 644.058 136.142C649.841 130.359 652.733 123.392 652.733 115.242C652.733 107.093 649.841 100.126 644.058 94.3423Z" fill="#0B1C2D"/>
<path d="M48.1943 98.0801C48.4121 98.0801 48.6294 98.0838 48.8457 98.0898C49.1914 98.0996 49.5352 98.1167 49.877 98.1416C61.6995 99.0027 71.0234 108.867 71.0234 120.909C71.0234 120.965 71.0219 121.021 71.0215 121.077V154.729C71.0215 167.338 60.8005 177.559 48.1924 177.559C35.5843 177.559 25.3633 167.338 25.3633 154.729V143.738H22.8291C10.221 143.738 5.51119e-07 133.517 0 120.909C3.44964e-05 108.301 10.221 98.0801 22.8291 98.0801H48.1943ZM119.808 52.4297C120.982 52.4595 122.135 52.5775 123.259 52.7783C124.945 53.0796 126.568 53.5659 128.104 54.2158C128.446 54.3602 128.783 54.5126 129.115 54.6729C129.281 54.7529 129.446 54.835 129.61 54.9189C130.431 55.3393 131.223 55.8082 131.982 56.3213C134.411 57.9623 136.508 60.0584 138.148 62.4873C138.353 62.7908 138.552 63.0994 138.742 63.4131C138.933 63.7269 139.116 64.0456 139.292 64.3691C139.38 64.531 139.466 64.6942 139.55 64.8584C139.886 65.5145 140.191 66.1889 140.464 66.8799C140.6 67.2254 140.728 67.5752 140.848 67.9287C141.267 69.1664 141.582 70.4518 141.784 71.7744C141.842 72.1523 141.891 72.5332 141.93 72.917C141.988 73.4926 142.025 74.0746 142.04 74.6621C142.045 74.8578 142.047 75.0541 142.047 75.251V154.729C142.047 167.338 131.826 177.559 119.218 177.559C106.61 177.559 96.3887 167.338 96.3887 154.729V98.0801H93.8525C81.2444 98.0801 71.0234 87.8591 71.0234 75.251C71.0235 62.6429 81.2444 52.4219 93.8525 52.4219H119.218C119.415 52.4219 119.612 52.4247 119.808 52.4297ZM190.241 6.76367C190.459 6.76367 190.676 6.76738 190.893 6.77344C191.238 6.78315 191.582 6.80027 191.924 6.8252C203.746 7.68634 213.07 17.5505 213.07 29.5928C213.07 29.6488 213.069 29.7048 213.068 29.7607V154.729C213.068 167.338 202.847 177.559 190.239 177.559C177.631 177.559 167.41 167.338 167.41 154.729V52.4219H164.876C152.268 52.4219 142.047 42.2009 142.047 29.5928C142.047 16.9847 152.268 6.76367 164.876 6.76367H190.241Z" fill="url(#paint0_linear_9_125)"/>
<defs>
<linearGradient id="paint0_linear_9_125" x1="41.1579" y1="-77.32" x2="291.321" y2="-21.7015" gradientUnits="userSpaceOnUse">
<stop offset="0.00657581" stop-color="#0B1C2D"/>
<stop offset="0.611888" stop-color="#066253"/>
<stop offset="0.973801" stop-color="#00C2A8"/>
</linearGradient>
</defs>
</svg>
