<svg width="2299" height="524" viewBox="0 0 2299 524" fill="none" xmlns="http://www.w3.org/2000/svg">
<g clip-path="url(#clip0_2_66)">
<path d="M2061.36 524.801C2053.34 525.594 2045.22 526 2037 526C2028.78 526 2020.66 525.594 2012.64 524.801C2017.76 525.263 2027.38 526 2037 526C2046.62 526 2056.24 525.263 2061.36 524.801ZM2008.89 524.398C2010.14 524.541 2011.39 524.677 2012.64 524.801C2010.3 524.589 2008.91 524.438 2008.89 524.436V524.398ZM2065.11 524.436C2065.11 524.436 2063.71 524.588 2061.36 524.801C2062.61 524.677 2063.86 524.541 2065.11 524.398V524.436ZM2037 1.82031C2176.73 1.82031 2290 119.162 2290 263.91C2290 398.815 2191.61 509.912 2065.11 524.398V428.83C2140.98 415.047 2198.64 346.455 2198.64 263.91C2198.64 171.432 2126.27 96.464 2037 96.4639C1947.73 96.464 1875.36 171.432 1875.36 263.91C1875.36 346.455 1933.02 415.047 2008.89 428.83V524.398C1882.39 509.912 1784 398.815 1784 263.91C1784 119.162 1897.27 1.82031 2037 1.82031Z" fill="#111827"/>
<path d="M2012.25 238.251C1998.58 251.92 1998.58 274.08 2012.25 287.749C2025.92 301.417 2048.08 301.417 2061.75 287.749L2037 263L2012.25 238.251ZM2273 27L2248.25 2.25126L2012.25 238.251L2037 263L2061.75 287.749L2297.75 51.7487L2273 27Z" fill="#111827"/>
<path d="M15.25 527V1.99996H115.75L339.25 372.5H286L505.75 1.99996H605.5L607 527H493L492.25 176.75H513.25L337.75 471.5H283L103.75 176.75H129.25V527H15.25ZM843.309 213.5H1096.06V308H843.309V213.5ZM852.309 429.5H1138.06V527H731.559V1.99996H1128.31V99.5H852.309V429.5ZM1234.73 527V1.99996H1461.98C1508.98 1.99996 1549.48 9.74997 1583.48 25.25C1617.48 40.25 1643.73 62 1662.23 90.5C1680.73 119 1689.98 153 1689.98 192.5C1689.98 231.5 1680.73 265.25 1662.23 293.75C1643.73 321.75 1617.48 343.25 1583.48 358.25C1549.48 373.25 1508.98 380.75 1461.98 380.75H1302.23L1356.23 327.5V527H1234.73ZM1568.48 527L1437.23 336.5H1566.98L1699.73 527H1568.48ZM1356.23 341L1302.23 284H1455.23C1492.73 284 1520.73 276 1539.23 260C1557.73 243.5 1566.98 221 1566.98 192.5C1566.98 163.5 1557.73 141 1539.23 125C1520.73 109 1492.73 101 1455.23 101H1302.23L1356.23 43.25V341Z" fill="#111827"/>
</g>
<defs>
<clipPath id="clip0_2_66">
<rect width="2299" height="524" fill="white"/>
</clipPath>
</defs>
</svg>
